<?xml version="1.0" encoding="utf-8"?>
<!-- Generator: Adobe Illustrator 16.0.0, SVG Export Plug-In . SVG Version: 6.00 Build 0)  -->
<!DOCTYPE svg PUBLIC "-//W3C//DTD SVG 1.1//EN" "http://www.w3.org/Graphics/SVG/1.1/DTD/svg11.dtd">
<svg version="1.1" id="Capa_1" xmlns="http://www.w3.org/2000/svg" xmlns:xlink="http://www.w3.org/1999/xlink" x="0px" y="0px"
	 width="512px" height="512px" viewBox="0 0 512 512" enable-background="new 0 0 512 512" xml:space="preserve">
<g>
	<path fill="#FFFFFF" d="M452.871,418.483v-78.951c0-16.964-13.752-30.717-30.716-30.717h-8.03V20.579
		c0-2.578-1.294-4.984-3.444-6.406L391.184,1.286c-5.105-3.374-11.912,0.286-11.912,6.406v92.571l-5.811-15.673
		c-7.813-21.079-27.92-35.068-50.4-35.068H188.823c-22.613,0-42.808,14.152-50.526,35.407l-5.567,15.334V7.692
		c0-6.119-6.808-9.78-11.914-6.406l-19.498,12.886c-2.151,1.421-3.445,3.828-3.445,6.406v288.237h-8.029
		c-16.964,0-30.716,13.752-30.716,30.717v78.951H46.042c-4.241,0-7.678,3.438-7.678,7.68v42.451c0,4.241,3.438,7.68,7.678,7.68
		H79.17v20.348c0,8.482,6.876,15.357,15.358,15.357h40.697c8.482,0,15.358-6.876,15.358-15.357v-20.348h210.835v20.348
		c0,8.482,6.877,15.357,15.357,15.357h40.698c8.481,0,15.357-6.876,15.357-15.357v-20.348h33.128c4.241,0,7.679-3.438,7.679-7.68
		v-42.45c0-4.242-3.438-7.68-7.679-7.68L452.871,418.483L452.871,418.483z M142.903,143.038h226.193V218.7H142.903V143.038z
		 M137.644,396.995H111.41c-8.016,0-14.513-6.499-14.513-14.515v-0.366c0-8.016,6.498-14.514,14.513-14.514h26.232
		c8.016,0,14.514,6.498,14.514,14.514v0.366C152.157,390.496,145.659,396.995,137.644,396.995z M308.202,401.274H203.798
		c-8.482,0-15.358-6.877-15.358-15.357v-97.31c0-8.481,6.876-15.357,15.358-15.357h104.404c8.481,0,15.357,6.877,15.357,15.357
		v97.309C323.561,394.397,316.684,401.274,308.202,401.274z M400.589,396.995h-26.232c-8.015,0-14.513-6.499-14.513-14.515v-0.366
		c0-8.016,6.498-14.514,14.513-14.514h26.232c8.016,0,14.515,6.498,14.515,14.514v0.366
		C415.104,390.496,408.604,396.995,400.589,396.995z M305.867,329.454h-99.98c-4.199,0-7.602-3.403-7.602-7.603v-0.154
		c0-4.199,3.403-7.602,7.602-7.602h99.98c4.199,0,7.603,3.402,7.603,7.602v0.154C313.47,326.051,310.066,329.454,305.867,329.454z
		 M305.867,298.738h-99.98c-4.199,0-7.602-3.404-7.602-7.603v-0.154c0-4.198,3.403-7.601,7.602-7.601h99.98
		c4.199,0,7.603,3.402,7.603,7.601v0.154C313.47,295.334,310.066,298.738,305.867,298.738z M305.867,390.887h-99.98
		c-4.199,0-7.602-3.403-7.602-7.602v-0.154c0-4.199,3.403-7.603,7.602-7.603h99.98c4.199,0,7.603,3.403,7.603,7.603v0.154
		C313.47,387.483,310.066,390.887,305.867,390.887z M305.867,360.17h-99.98c-4.199,0-7.602-3.403-7.602-7.601v-0.154
		c0-4.199,3.403-7.603,7.602-7.603h99.98c4.199,0,7.603,3.403,7.603,7.603v0.154C313.47,356.767,310.066,360.17,305.867,360.17z"/>
</g>
</svg>
